<svg xmlns="http://www.w3.org/2000/svg" viewBox="0 0 1500 840" role="img" aria-label="Choose a model. Keep Claude Code."><defs><marker id="a" markerWidth="10" markerHeight="10" refX="8" refY="3" orient="auto"><path d="M0,0 L0,6 L9,3 z" fill="#618c9d"/></marker></defs><style>
:root{color-scheme:light dark}.bg{fill:#f7fbfd}.box{fill:#fff;stroke:#6ca6b9;stroke-width:2}.accent{fill:#e8f8f2;stroke:#26906e;stroke-width:2}.txt{fill:#183848;font-family:ui-monospace,SFMono-Regular,Menlo,Consolas,monospace}.title{font-size:30px;font-weight:700}.label{font-size:18px;font-weight:700}.small{font-size:14px}.muted{fill:#567988}.edge{stroke:#618c9d;stroke-width:2.2;fill:none;marker-end:url(#a)}@media(prefers-color-scheme:dark){.bg{fill:#06131f}.box{fill:#0b2233;stroke:#34799a}.accent{fill:#0d2e2a;stroke:#69dfbd}.txt{fill:#e3f6ff}.muted{fill:#91b8ca}.edge{stroke:#78a3b7}}</style><rect class="bg" width="100%" height="100%"/><text x="70" y="70" class="txt title">Choose a model. Keep Claude Code.</text><text x="70" y="105" class="txt small muted">CC Switch owns provider configuration; native Anthropic routes can connect directly, while compatible OpenAI formats use the local proxy translation path.</text><rect x="80" y="260" width="250" height="120" class="accent" rx="16"/><text x="100" y="295" class="txt label">CC Switch</text><text x="100" y="322" class="txt small muted">provider · endpoint · model</text><rect x="470" y="260" width="250" height="120" class="box" rx="16"/><text x="490" y="295" class="txt label">Claude Code</text><text x="490" y="322" class="txt small muted">agent harness + tools</text><rect x="940" y="170" width="320" height="110" class="box" rx="16"/><text x="960" y="205" class="txt label">Anthropic Messages</text><text x="960" y="232" class="txt small muted">native direct route</text><rect x="940" y="380" width="320" height="110" class="box" rx="16"/><text x="960" y="415" class="txt label">OpenAI-compatible</text><text x="960" y="442" class="txt small muted">Chat Completions / Responses</text><rect x="940" y="590" width="320" height="110" class="accent" rx="16"/><text x="960" y="625" class="txt label">Selected model</text><text x="960" y="652" class="txt small muted">provider backend</text><path d="M330 320 L470 320" class="edge"/><text x="400" y="310" text-anchor="middle" class="txt small muted">configure</text><path d="M720 300 L940 225" class="edge"/><text x="830" y="252" text-anchor="middle" class="txt small muted">direct</text><path d="M720 340 L940 435" class="edge"/><text x="830" y="377" text-anchor="middle" class="txt small muted">proxy + takeover</text><path d="M1100 280 L1100 590" class="edge"/><path d="M1100 490 L1100 590" class="edge"/></svg>